<?xml version="1.0" encoding="UTF-8"?>
<svg width="232px" height="500px" viewBox="0 0 232 500" version="1.1" xmlns="http://www.w3.org/2000/svg" xmlns:xlink="http://www.w3.org/1999/xlink">
    <!-- Generator: Sketch 47.1 (45422) - http://www.bohemiancoding.com/sketch -->
    <defs>
        <path d="M113.039224,131.47 C99.8516577,131.643 89.2700058,142.323 89.4499999,155.269 C89.6329939,168.227 100.502636,178.608 113.692202,178.431 C126.875768,178.254 137.45742,167.583 137.275426,154.626 C137.094432,141.683 126.21979,131.291 113.039224,131.47" id="path-1"></path>
    </defs>
    <g id="Page-1" stroke="none" stroke-width="1" fill="none" fill-rule="evenodd">
        <g id="Rocket">
            <path d="M122.045,499.696 C194.34,390.526 148.91,342.684 148.91,342.684 L94.926,342.684 C94.926,342.684 49.495,390.526 121.791,499.696 L121.791,500.09 L121.918,499.894 L122.045,500.09 L122.045,499.696" id="Fill-481" fill="#F6BD36"></path>
            <path d="M120.99,473.208 C177.158,389.567 136.148,343.321 136.148,343.321 L120.846,343.321 C120.846,343.321 108.646,340.043 105.687,343.321 C69.007,383.953 120.99,473.208 120.99,473.208" id="Fill-482" fill="#FAE79A"></path>
            <polyline id="Fill-483" fill="#D33D36" points="84.837 344.107 150.855 343.215 150.557 321.834 84.541 322.717 84.837 344.107"></polyline>
            <path d="M0.721,345.854 C0.924,360.385 3.931,374.223 9.187,386.913 C25.377,344.522 66.7,314.081 115.572,313.424 C164.447,312.77 206.602,342.086 223.951,384.026 C228.855,371.204 231.479,357.292 231.279,342.757 C230.41,280.225 178.094,230.231 114.428,231.086 C50.764,231.945 -0.148,283.324 0.721,345.854 Z" id="Fill-484" fill="#E3663D"></path>
            <path d="M145.059,316.838 C180.91,325.612 210.211,350.833 223.951,384.026 C228.855,371.204 231.479,357.292 231.279,342.757 C230.545,290.221 193.488,246.549 143.91,234.439 L145.059,316.838" id="Fill-485" fill="#D33D36"></path>
            <path d="M42.694,195.209 C43.438,248.575 55.612,297.257 75.192,334.864 C87.961,330.698 101.597,328.327 115.777,328.139 C129.955,327.949 143.646,329.947 156.539,333.771 C175.053,295.654 185.871,246.665 185.127,193.302 C183.949,108.531 153.971,35.519 111.211,0.086 C69.454,36.656 41.513,110.439 42.694,195.209" id="Fill-486" fill="#F4F4F4"></path>
            <path d="M59.787,82.778 L56.651,92.625 C56.651,92.625 117.49,85.033 169.805,92.234 L164.912,81.371 C164.912,81.371 94.649,73.767 59.787,82.778" id="Fill-487" fill="#EFA43A"></path>
            <path d="M105.174,305.19 C105.664,340.448 112.301,370.883 121.578,385.749 C130.434,370.643 136.229,340.038 135.736,304.781 C135.246,269.526 128.602,239.085 119.332,224.222 C110.473,239.331 104.683,269.936 105.174,305.19" id="Fill-488" fill="#E3663D"></path>
            <path d="M121.156,385.018 C121.303,385.254 121.438,385.52 121.578,385.749 C130.434,370.643 136.229,340.038 135.736,304.781 C135.246,269.526 128.602,239.085 119.332,224.222 C119.199,224.458 119.068,224.732 118.928,224.959 L121.156,385.018" id="Fill-489" fill="#D33D36"></path>
            <path d="M59.787,82.778 C76.889,81.433 94.421,80.578 112.329,80.338 C130.23,80.099 147.783,80.476 164.912,81.371 C151.859,46.67 133.254,18.353 111.211,0.086 C89.683,18.939 71.873,47.741 59.787,82.778" id="Fill-490" fill="#E3663D"></path>
            <path d="M114.067,80.329 C131.363,80.138 148.338,80.505 164.912,81.371 C151.859,46.67 133.254,18.353 111.211,0.086 C110.825,0.425 110.446,0.792 110.061,1.138 L114.067,80.329" id="Fill-491" fill="#D33D36"></path>
            <path d="M113.377,123.933 L112.937,123.936 C104.511,124.046 96.625,127.38 90.735,133.325 C84.844,139.269 81.662,147.098 81.777,155.371 C82.015,172.241 96.184,185.967 113.359,185.969 L113.798,185.965 C131.213,185.731 145.189,171.625 144.949,154.522 C144.713,137.654 130.549,123.933 113.377,123.933" id="Fill-492" fill="#EFA43A"></path>
            <path d="M113.039224,131.47 C99.8516577,131.643 89.2700058,142.323 89.4499999,155.269 C89.6329939,168.227 100.502636,178.608 113.692202,178.431 C126.875768,178.254 137.45742,167.583 137.275426,154.626 C137.094432,141.683 126.21979,131.291 113.039224,131.47" id="Fill-493" fill="#ADD6FF"></path>
            <mask id="mask-2" fill="white">
                <use xlink:href="#path-1"></use>
            </mask>
            <g id="Fill-493-Copy"></g>
            <rect id="Rectangle" fill="#FFFFFF" opacity="0.85" mask="url(#mask-2)" transform="translate(104.500000, 148.000000) rotate(140.000000) translate(-104.500000, -148.000000) " x="77" y="146" width="55" height="4"></rect>
            <rect id="Rectangle-Copy" fill="#FFFFFF" opacity="0.85" mask="url(#mask-2)" transform="translate(109.000000, 152.000000) rotate(140.000000) translate(-109.000000, -152.000000) " x="83" y="151" width="52" height="2"></rect>
        </g>
    </g>
</svg>
